HIERARCHY
ROOT Pelvis
{
	OFFSET 0.000000 0.941512 0.000000
	CHANNELS 6 Xposition Yposition Zposition Zrotation Yrotation Xrotation 
	JOINT Pelvis_L_Hip
	{
		OFFSET 0.000000 0.000000 0.000000
		CHANNELS 3 Zrotation Yrotation Xrotation
		JOINT L_Hip
		{
			OFFSET 0.062321 -0.080322 -0.016990
			CHANNELS 3 Zrotation Yrotation Xrotation
			JOINT L_Knee
			{
				OFFSET 0.093051 -0.381305 -0.029784
				CHANNELS 3 Zrotation Yrotation Xrotation
				JOINT L_Ankle
				{
					OFFSET -0.010371 -0.431000 -0.033614
					CHANNELS 3 Zrotation Yrotation Xrotation
					End Site #name: L_Foot
					{
						OFFSET 0.069299 -0.038670 0.119418
					}
				}
			}
		}
	}
	JOINT Pelvis_R_Hip
	{
		OFFSET 0.000000 0.000000 0.000000
		CHANNELS 3 Zrotation Yrotation Xrotation
		JOINT R_Hip
		{
			OFFSET -0.055334 -0.094904 -0.002373
			CHANNELS 3 Zrotation Yrotation Xrotation
			JOINT R_Knee
			{
				OFFSET -0.064207 -0.384370 -0.019592
				CHANNELS 3 Zrotation Yrotation Xrotation
				JOINT R_Ankle
				{
					OFFSET 0.025418 -0.419734 -0.065953
					CHANNELS 3 Zrotation Yrotation Xrotation
					End Site #name: R_Foot
					{
						OFFSET -0.057233 -0.039888 0.132134
					}
				}
			}
		}
	}
	JOINT Pelvis_Spine1
	{
		OFFSET 0.000000 0.000000 0.000000
		CHANNELS 3 Zrotation Yrotation Xrotation
		JOINT Spine1
		{
			OFFSET -0.005562 0.124093 -0.043360
			CHANNELS 3 Zrotation Yrotation Xrotation
			JOINT Spine2
			{
				OFFSET 0.012244 0.139499 0.029894
				CHANNELS 3 Zrotation Yrotation Xrotation
				JOINT Spine3
				{
					OFFSET -0.002556 0.056561 0.009225
					CHANNELS 3 Zrotation Yrotation Xrotation
					JOINT Spine3_Neck
					{
						OFFSET 0.000000 0.000000 0.000000
						CHANNELS 3 Zrotation Yrotation Xrotation
						JOINT Neck
						{
							OFFSET -0.005205 0.217920 -0.024551
							CHANNELS 3 Zrotation Yrotation Xrotation
							End Site #name: Head
							{
								OFFSET 0.002365 0.091850 0.046637
							}
						}
					}
					JOINT Spine3_L_Collar
					{
						OFFSET 0.000000 0.000000 0.000000
						CHANNELS 3 Zrotation Yrotation Xrotation
						JOINT L_Collar
						{
							OFFSET 0.072225 0.116603 -0.009480
							CHANNELS 3 Zrotation Yrotation Xrotation
							JOINT L_Shoulder
							{
								OFFSET 0.115937 -0.058643 -0.021018
								CHANNELS 3 Zrotation Yrotation Xrotation
								JOINT L_Elbow
								{
									OFFSET 0.021994 -0.254722 -0.024492
									CHANNELS 3 Zrotation Yrotation Xrotation
									End Site #name: L_Wrist
									{
										OFFSET 0.048810 -0.240214 0.103329
									}
								}
							}
						}
					}
					JOINT Spine3_R_Collar
					{
						OFFSET 0.000000 0.000000 0.000000
						CHANNELS 3 Zrotation Yrotation Xrotation
						JOINT R_Collar
						{
							OFFSET -0.073372 0.120704 -0.024611
							CHANNELS 3 Zrotation Yrotation Xrotation
							JOINT R_Shoulder
							{
								OFFSET -0.108089 -0.054969 -0.020504
								CHANNELS 3 Zrotation Yrotation Xrotation
								JOINT R_Elbow
								{
									OFFSET -0.033684 -0.260739 0.009889
									CHANNELS 3 Zrotation Yrotation Xrotation
									End Site #name: R_Wrist
									{
										OFFSET -0.067980 -0.232763 0.118463
									}
								}
							}
						}
					}
				}
			}
		}
	}
}
MOTION
Frames: 7
Frame Time: 0.041667
0.000000 0.946128 0.000000 -3.297899 -0.917806 2.491432 0.000000 0.000000 0.000000 -0.007455 -0.423682 -1.749062 5.210738 -0.353479 -0.837309 -4.043668 -9.380176 1.795626 0.000000 0.000000 0.000000 2.507949 -0.077013 -0.343223 -2.615043 0.064771 -4.120242 1.833241 1.622157 2.966672 0.000000 0.000000 0.000000 6.212223 -0.718410 -4.497867 -1.538190 0.059541 -3.274871 1.757323 1.093050 4.834504 0.000000 0.000000 0.000000 -4.760042 2.554369 3.459252 0.000000 0.000000 0.000000 24.946280 -3.809169 2.113619 -19.907056 3.378669 4.710266 -3.020745 -2.365345 -4.434235 0.000000 0.000000 0.000000 -29.840581 6.494987 0.822203 18.848380 -2.934037 11.722068 -6.646287 -0.637334 -11.897825 
-0.000000 0.946062 -0.000010 -3.321409 -0.927052 2.509781 0.000000 0.000000 0.000000 0.022897 -0.430694 -1.769812 5.200409 -0.353010 -0.833155 -4.042139 -9.371203 1.797851 0.000000 0.000000 0.000000 2.534376 -0.075617 -0.358530 -2.621609 0.065054 -4.126882 1.842351 1.636066 2.976521 0.000000 0.000000 0.000000 6.277589 -0.720823 -4.564169 -1.627850 0.067205 -3.348592 1.799213 1.083877 4.968568 0.000000 0.000000 0.000000 -4.745595 2.544303 3.326678 0.000000 0.000000 0.000000 25.058108 -3.821704 2.121197 -20.005554 3.389547 4.680333 -2.976422 -2.337101 -4.408234 0.000000 0.000000 0.000000 -29.867957 6.477869 0.845532 18.930499 -2.937189 11.697316 -6.666784 -0.646991 -11.913316 
0.000026 0.946055 0.000018 -3.323854 -0.937285 2.496244 0.000000 0.000000 0.000000 0.026747 -0.424765 -1.744227 5.191691 -0.351654 -0.844262 -4.038686 -9.366187 1.794719 0.000000 0.000000 0.000000 2.534023 -0.078272 -0.344404 -2.620814 0.065067 -4.125885 1.845488 1.647623 2.974886 0.000000 0.000000 0.000000 6.268975 -0.714951 -4.593084 -1.622937 0.066379 -3.351393 1.810585 1.062552 4.979892 0.000000 0.000000 0.000000 -4.727400 2.534454 3.313162 0.000000 0.000000 0.000000 25.083255 -3.819766 2.122996 -20.006587 3.398934 4.713452 -2.946433 -2.308559 -4.349931 0.000000 0.000000 0.000000 -29.845265 6.435532 0.887005 18.955044 -2.946041 11.717782 -6.641303 -0.629802 -11.909248 
0.000068 0.946050 0.000001 -3.325904 -0.942726 2.484765 0.000000 0.000000 0.000000 0.028303 -0.421015 -1.728205 5.185871 -0.350478 -0.849768 -4.037921 -9.367674 1.792055 0.000000 0.000000 0.000000 2.532388 -0.080002 -0.334559 -2.620073 0.065409 -4.119981 1.844866 1.653087 2.969372 0.000000 0.000000 0.000000 6.259638 -0.710543 -4.612439 -1.619954 0.065552 -3.358046 1.820442 1.042788 4.987756 0.000000 0.000000 0.000000 -4.708313 2.523625 3.291095 0.000000 0.000000 0.000000 25.097408 -3.813672 2.126052 -20.006977 3.408433 4.746751 -2.938910 -2.291753 -4.292990 0.000000 0.000000 0.000000 -29.815925 6.393960 0.924000 18.982016 -2.956488 11.744680 -6.611992 -0.623045 -11.863126 
0.000118 0.946046 -0.000056 -3.327576 -0.949513 2.475541 0.000000 0.000000 0.000000 0.026171 -0.417385 -1.713772 5.185997 -0.349726 -0.865501 -4.039824 -9.367129 1.796200 0.000000 0.000000 0.000000 2.529693 -0.081059 -0.327981 -2.619950 0.065586 -4.116580 1.844763 1.657415 2.965781 0.000000 0.000000 0.000000 6.256741 -0.708975 -4.617890 -1.612120 0.064197 -3.365509 1.818414 1.028148 4.986841 0.000000 0.000000 0.000000 -4.695901 2.516577 3.270257 0.000000 0.000000 0.000000 25.100568 -3.810835 2.125890 -20.009992 3.417720 4.778088 -2.918523 -2.269383 -4.244250 0.000000 0.000000 0.000000 -29.790668 6.369248 0.946308 19.006268 -2.967489 11.774236 -6.581786 -0.617962 -11.807174 
0.000180 0.946044 -0.000139 -3.328572 -0.959375 2.463249 0.000000 0.000000 0.000000 0.019839 -0.415747 -1.708630 5.188818 -0.350460 -0.853393 -4.034288 -9.365334 1.787811 0.000000 0.000000 0.000000 2.525124 -0.081954 -0.322172 -2.619442 0.065486 -4.116443 1.848110 1.663930 2.968238 0.000000 0.000000 0.000000 6.256291 -0.708103 -4.624958 -1.615260 0.064204 -3.370397 1.825963 1.017752 4.994862 0.000000 0.000000 0.000000 -4.689799 2.513372 3.267529 0.000000 0.000000 0.000000 25.101823 -3.810809 2.123037 -20.022120 3.426037 4.802945 -2.926205 -2.261082 -4.190992 0.000000 0.000000 0.000000 -29.774982 6.353606 0.961084 19.020931 -2.976689 11.799798 -6.559810 -0.613966 -11.763420 
0.000257 0.946045 -0.000239 -3.328646 -0.968474 2.444527 0.000000 0.000000 0.000000 0.011818 -0.412702 -1.698261 5.192938 -0.351770 -0.844159 -4.031228 -9.359768 1.786296 0.000000 0.000000 0.000000 2.518712 -0.084497 -0.306450 -2.619364 0.064978 -4.124070 1.853957 1.675057 2.972996 0.000000 0.000000 0.000000 6.259582 -0.709255 -4.619185 -1.617357 0.064481 -3.370100 1.825738 1.009220 4.998289 0.000000 0.000000 0.000000 -4.682310 2.509970 3.285599 0.000000 0.000000 0.000000 25.101888 -3.813954 2.117320 -20.030587 3.431229 4.814112 -2.890775 -2.227402 -4.123343 0.000000 0.000000 0.000000 -29.768280 6.344773 0.971170 19.015409 -2.981127 11.815237 -6.554835 -0.618171 -11.730909 
